<?xml version="1.0" encoding="utf-8"?>
<!-- Generator: Adobe Illustrator 25.0.0, SVG Export Plug-In . SVG Version: 6.00 Build 0)  -->
<svg version="1.1" id="Слой_1" xmlns="http://www.w3.org/2000/svg" xmlns:xlink="http://www.w3.org/1999/xlink" x="0px" y="0px"
	 width="255px" height="255px" viewBox="0 0 255 255" style="enable-background:new 0 0 255 255;" xml:space="preserve">
<style type="text/css">
	.st0{fill:#FFFFFF;}
</style>
<path class="st0" d="M232.2,144.8H23.3c-9.5,0-17.2-7.7-17.2-17.2s7.7-17.2,17.2-17.2h208.8c9.5,0,17.2,7.7,17.2,17.2
	S241.7,144.8,232.2,144.8z"/>
<path class="st0" d="M23.4,41.2h150.4v34.3H23.4c-9.5,0-17.2-7.7-17.2-17.2S13.9,41.2,23.4,41.2z"/>
<path class="st0" d="M249.4,58.4c0,9.5-7.7,17.2-17.2,17.2h-21.8V41.2h21.8C241.7,41.2,249.4,48.9,249.4,58.4z"/>
<path class="st0" d="M232.2,179.7H81.7V214h150.4c9.5,0,17.2-7.7,17.2-17.2S241.7,179.7,232.2,179.7z"/>
<path class="st0" d="M6.2,196.8c0,9.5,7.7,17.2,17.2,17.2h21.8v-34.3H23.4C13.9,179.7,6.2,187.3,6.2,196.8z"/>
</svg>
