<?xml version="1.0" encoding="utf-8"?>
<!-- Generator: Adobe Illustrator 26.1.0, SVG Export Plug-In . SVG Version: 6.00 Build 0)  -->
<svg version="1.1" id="Слой_1" xmlns="http://www.w3.org/2000/svg" xmlns:xlink="http://www.w3.org/1999/xlink" x="0px" y="0px"
	 viewBox="0 0 524 524" style="enable-background:new 0 0 524 524;" xml:space="preserve">
<style type="text/css">
	.st0{fill:#FFFFFF;}
	.st1{fill:url(#SVGID_1_);}
	.st2{fill:url(#SVGID_00000052062351788787439350000009615438807996355231_);}
</style>
<g>
	<path class="st0" d="M90.2,0.1h343.5c49.8,0.1,90.2,40.4,90.2,90.2v343.5c-0.1,49.8-40.4,90.2-90.2,90.2H90.2
		C40.3,524,0,483.7-0.1,433.9V90.2C0,40.4,40.4,0.1,90.2,0.1z"/>
	<g id="Слой_3">
		
			<linearGradient id="SVGID_1_" gradientUnits="userSpaceOnUse" x1="152.1853" y1="1481.7051" x2="371.6701" y2="1262.2823" gradientTransform="matrix(1 0 0 1 0 -1110.04)">
			<stop  offset="0" style="stop-color:#0498FA"/>
			<stop  offset="0.34" style="stop-color:#5C5EFE"/>
			<stop  offset="0.73" style="stop-color:#F44E90"/>
			<stop  offset="1" style="stop-color:#FA8679"/>
		</linearGradient>
		<path class="st1" d="M262.3,106.9h-0.7c-85.4,0-154.7,69.2-154.7,154.7l0,0l0,0v0.7c0,85.4,69.2,154.7,154.7,154.7h0.7
			c85.4,0,154.7-69.3,154.7-154.7l0,0l0,0v-0.7C416.9,176.2,347.7,106.9,262.3,106.9L262.3,106.9z"/>
		<path class="st0" d="M354.2,262v0.5c-0.3,43.7-31.2,81.2-74,89.9c-2.8,0.5-5.7,1-8.7,1.3c-3.2,0.3-6.4,0.5-9.7,0.5
			c-12.4,0-24.7-2.5-36.1-7.4l-42.8,4.5c-5.2,0.6-9.9-3.2-10.5-8.4c0,0,0,0,0,0l0,0c-0.2-1.7,0.1-3.4,0.8-4.9l11.5-25.5
			c-28.1-42.6-16.3-99.8,26.3-127.8s99.8-16.3,127.8,26.3c8.4,12.8,13.5,27.4,14.9,42.7C354.1,256.4,354.3,259.2,354.2,262z"/>
		
			<linearGradient id="SVGID_00000129182780914247197240000007541118597488302509_" gradientUnits="userSpaceOnUse" x1="223.4946" y1="1410.7653" x2="300.7768" y2="1333.4985" gradientTransform="matrix(1 0 0 1 0 -1110.04)">
			<stop  offset="0" style="stop-color:#0498FA"/>
			<stop  offset="0.34" style="stop-color:#5C5EFE"/>
			<stop  offset="0.73" style="stop-color:#F44E90"/>
			<stop  offset="1" style="stop-color:#FA8679"/>
		</linearGradient>
		<path style="fill:url(#SVGID_00000129182780914247197240000007541118597488302509_);" d="M306.3,235c1.9-1.8,4.8-1.7,6.6,0.1
			c1.6,1.7,1.7,4.2,0.3,6.1l-19.4,29.9l-10.2,15.8c-2.1,3.2-6.4,4.1-9.6,2l-0.4-0.3l-17.1-12.9l-10.5-8c-0.8-0.7-2-0.7-2.9,0
			l-25.7,21c-1.9,1.8-4.8,1.7-6.6-0.1c-1.6-1.7-1.7-4.2-0.3-6.1l18.2-27.9l10.3-15.8c2.1-3.2,6.4-4.1,9.6-2l0.3,0.2l16.5,12.5
			l10.5,7.9c0.8,0.6,2,0.6,2.9,0L306.3,235z"/>
	</g>
</g>
</svg>
