<?xml version="1.0" encoding="utf-8"?>
<!-- Generator: Adobe Illustrator 25.0.0, SVG Export Plug-In . SVG Version: 6.00 Build 0)  -->
<svg version="1.1" id="Слой_1" xmlns="http://www.w3.org/2000/svg" xmlns:xlink="http://www.w3.org/1999/xlink" x="0px" y="0px"
	 width="512px" height="512px" viewBox="0 0 512 512" style="enable-background:new 0 0 512 512;" xml:space="preserve">
<style type="text/css">
	.st0{opacity:0.84;fill:url(#SVGID_1_);}
	.st1{fill:#FFFFFF;}
	.st2{fill:#31A6DA;}
	.st3{fill:#8ACEE3;}
	.st4{fill:#E8F5FB;}
</style>
<radialGradient id="SVGID_1_" cx="256" cy="257.617" r="243.8943" gradientUnits="userSpaceOnUse">
	<stop  offset="0" style="stop-color:#878787"/>
	<stop  offset="1" style="stop-color:#616160;stop-opacity:0"/>
</radialGradient>
<rect x="7.3" y="18.6" class="st0" width="497.3" height="478.1"/>
<path class="st1" d="M368.1,425.2H143.1c-31.2,0-56.4-25.3-56.4-56.4V143.7c0-31.2,25.3-56.4,56.4-56.4h225.1
	c31.2,0,56.4,25.3,56.4,56.4v225.1C424.6,400,399.3,425.2,368.1,425.2z"/>
<circle class="st2" cx="255.6" cy="256.2" r="138.7"/>
<polygon class="st3" points="227.4,277 225.9,311.1 263.3,279.4 "/>
<path class="st4" d="M313.8,195.6l-139.6,53.1c-3.9,1.5-3.8,7.1,0.2,8.5l36,12.2l82-52.9L227.4,277l50.6,38.4
	c5.3,4,12.9,1.3,14.5-5.1l27.3-109.3C320.6,197.4,317.2,194.4,313.8,195.6z"/>
</svg>
