<svg id="Слой_1" data-name="Слой 1" xmlns="http://www.w3.org/2000/svg" viewBox="0 0 524 524"><defs><style>.cls-1{fill:#fff;}.cls-2{fill:#24a1de;}.cls-3{fill:#fefffc;}</style></defs><path class="cls-1" d="M90.16.08H433.7a90.32,90.32,0,0,1,90.23,90.23V433.85a90.32,90.32,0,0,1-90.23,90.23H90.16A90.32,90.32,0,0,1-.07,433.85V90.15A90.18,90.18,0,0,1,90.16.08Z"/><path class="cls-2" d="M262.29,106.93h-.72A154.67,154.67,0,0,0,106.9,261.6h0v.71A154.68,154.68,0,0,0,261.56,417h.73A154.69,154.69,0,0,0,417,262.28h0v-.71A154.66,154.66,0,0,0,262.3,106.93Z"/><path class="cls-3" d="M165.63,256.65c.43-.23.86-.43,1.28-.62,7.37-3.42,14.84-6.62,22.28-9.81a6.05,6.05,0,0,0,1.46-.62l1.73-.73,3.31-1.42,6.65-2.84,13.25-5.69,26.54-11.35,26.54-11.36,26.54-11.37,26.53-11.34a31.39,31.39,0,0,1,6.2-2.49c1.78-.32,3.51-.93,5.29-1.25a17.63,17.63,0,0,1,10.34.5,9.75,9.75,0,0,1,3,2c4.1,4.06,3.53,10.72,2.66,16.44q-9.06,59.78-18.17,119.52c-.82,5.47-1.95,11.47-6.2,14.93-3.64,2.91-8.83,3.24-13.35,2a44.71,44.71,0,0,1-12.4-6.42q-24.3-16.12-48.6-32.16c-3.84-2.54-8.12-5.86-8.08-10.48,0-2.79,1.69-5.27,3.38-7.48,14.06-18.33,34.34-31,49.43-48.43,2.12-2.47,3.79-6.93.88-8.35-1.74-.85-3.74.3-5.33,1.4L231,270.84c-6.51,4.51-13.33,9.16-21.17,10.28-7,1-14.08-1-20.87-3q-8.53-2.52-17.05-5.17a21.21,21.21,0,0,1-8.44-4.06c-2.32-2.12-3.66-5.69-2.26-8.49a9.38,9.38,0,0,1,4.39-3.82Z"/></svg>