<?xml version="1.0" encoding="UTF-8"?>
<svg id="_Слой_1" data-name="Слой 1" xmlns="http://www.w3.org/2000/svg" viewBox="0 0 524 524">
  <defs>
    <style>
      .cls-1 {
        fill: #fff;
      }

      .cls-2 {
        fill: #fefffc;
      }

      .cls-3 {
        fill: #24a1de;
      }
    </style>
  </defs>
  <g id="_Слой_1-2" data-name="Слой 1-2">
    <path class="cls-1" d="m151.2,93h221.6c32.13.03,58.17,26.07,58.2,58.2v221.6c-.03,32.13-26.07,58.17-58.2,58.2h-221.6c-32.13-.03-58.17-26.07-58.2-58.2v-221.7c.04-32.11,26.09-58.12,58.2-58.1Z"/>
  </g>
  <g id="_Слой_3" data-name="Слой 3">
    <path class="cls-3" d="m262.3,130h-.61c-72.73,0-131.7,58.96-131.7,131.7h0v.61c0,72.73,58.95,131.69,131.68,131.7h.62c72.74,0,131.7-58.98,131.7-131.72h0v-.61c-.01-72.72-58.96-131.66-131.68-131.67h-.01Z"/>
    <path class="cls-2" d="m180,257.49c.37-.2.74-.37,1.1-.53,6.27-2.92,12.63-5.64,18.97-8.36.43-.12.85-.3,1.24-.53l1.48-.62,2.81-1.21,5.66-2.42,11.29-4.84,22.6-9.66,22.6-9.68,22.6-9.68,22.59-9.66c1.68-.89,3.45-1.6,5.28-2.11,1.52-.28,2.98-.79,4.5-1.07,2.91-.74,5.98-.59,8.8.42.95.41,1.82,1,2.56,1.73,3.5,3.46,3.01,9.13,2.27,14.01-5.15,33.92-10.3,67.84-15.47,101.76-.7,4.66-1.66,9.77-5.28,12.71-3.1,2.48-7.52,2.76-11.37,1.7-3.79-1.25-7.35-3.1-10.56-5.46-13.8-9.15-27.59-18.28-41.38-27.38-3.27-2.16-6.92-4.99-6.88-8.92,0-2.38,1.44-4.49,2.88-6.38,11.97-15.6,29.24-26.4,42.08-41.24,1.81-2.1,3.23-5.9.75-7.1-1.48-.73-3.18.25-4.54,1.19l-50.89,35.4c-5.54,3.84-11.35,7.8-18.03,8.75-5.98.84-11.99-.82-17.77-2.52-4.84-1.43-9.68-2.89-14.52-4.4-2.62-.6-5.07-1.79-7.18-3.46-1.98-1.81-3.12-4.84-1.93-7.23.87-1.45,2.18-2.59,3.74-3.25v.03Z"/>
  </g>
</svg>