<?xml version="1.0" encoding="utf-8"?>
<!-- Generator: Adobe Illustrator 25.0.0, SVG Export Plug-In . SVG Version: 6.00 Build 0)  -->
<svg version="1.1" id="Слой_1" xmlns="http://www.w3.org/2000/svg" xmlns:xlink="http://www.w3.org/1999/xlink" x="0px" y="0px"
	 width="512px" height="512px" viewBox="0 0 512 512" style="enable-background:new 0 0 512 512;" xml:space="preserve">
<style type="text/css">
	.st0{opacity:0.84;fill:url(#SVGID_1_);}
	.st1{fill:#FFFFFF;}
	.st2{fill:#7B3B8F;}
</style>
<radialGradient id="SVGID_1_" cx="256" cy="257.617" r="243.8943" gradientUnits="userSpaceOnUse">
	<stop  offset="0" style="stop-color:#878787"/>
	<stop  offset="1" style="stop-color:#616160;stop-opacity:0"/>
</radialGradient>
<rect x="7.3" y="18.6" class="st0" width="497.3" height="478.1"/>
<path class="st1" d="M368.1,425.2H143.1c-31.2,0-56.4-25.3-56.4-56.4V143.7c0-31.2,25.3-56.4,56.4-56.4h225.1
	c31.2,0,56.4,25.3,56.4,56.4v225.1C424.6,400,399.3,425.2,368.1,425.2z"/>
<path class="st2" d="M389.5,181l-0.1-0.3c-6.8-27.3-37.3-56.7-65.3-62.8l-0.3-0.1c-45.3-8.6-91.2-8.6-136.5,0l-0.3,0.1
	c-28,6.1-58.5,35.4-65.3,62.8l-0.1,0.3c-8.4,38.2-8.4,76.9,0,115.1l0.1,0.3c6.5,26.2,34.7,54.2,61.7,61.9v30.5
	c0,11,13.5,16.5,21.1,8.5l30.9-32.1c6.7,0.4,13.4,0.6,20.1,0.6c22.8,0,45.6-2.2,68.2-6.5l0.3-0.1c28-6.1,58.5-35.4,65.3-62.8
	l0.1-0.3C397.9,257.9,397.9,219.2,389.5,181z M365,290.6c-4.5,17.8-27.7,40-46.1,44.1c-24.1,4.6-48.4,6.5-72.6,5.9
	c-0.5,0-0.9,0.2-1.3,0.5c-3.4,3.5-22.6,23.2-22.6,23.2l-24,24.6c-1.8,1.8-4.8,0.6-4.8-1.9v-50.6c0-0.8-0.6-1.5-1.4-1.7c0,0,0,0,0,0
	c-18.4-4.1-41.5-26.3-46.1-44.1c-7.5-34.5-7.5-69.5,0-104c4.5-17.8,27.7-40,46.1-44.1c42.1-8,84.7-8,126.7,0
	c18.4,4.1,41.5,26.3,46.1,44.1C372.6,221.1,372.6,256.1,365,290.6z"/>
<path class="st2" d="M295.6,313.9c-2.8-0.9-5.5-1.4-8-2.5c-25.9-10.8-49.8-24.6-68.7-45.9c-10.8-12.1-19.2-25.8-26.3-40.2
	c-3.4-6.9-6.2-14-9.1-21.1c-2.6-6.5,1.2-13.1,5.3-18c3.8-4.6,8.8-8.1,14.2-10.6c4.2-2,8.3-0.9,11.4,2.7c6.6,7.7,12.7,15.7,17.6,24.6
	c3,5.5,2.2,12.1-3.3,15.9c-1.3,0.9-2.5,2-3.8,3c-1.1,0.9-2.1,1.8-2.9,3c-1.4,2.2-1.4,4.8-0.6,7.2c6.7,18.5,18.1,33,36.8,40.7
	c3,1.2,6,2.7,9.4,2.3c5.8-0.7,7.6-7,11.7-10.3c3.9-3.2,9-3.3,13.2-0.6c4.3,2.7,8.4,5.6,12.5,8.5c4,2.9,8,5.7,11.7,8.9
	c3.6,3.1,4.8,7.3,2.8,11.5c-3.7,7.8-9,14.3-16.8,18.5C300.7,312.8,298.1,313.2,295.6,313.9C292.8,313.1,298.1,313.2,295.6,313.9z"/>
<path class="st2" d="M255.7,166.7c33.9,1,61.8,23.5,67.8,57c1,5.7,1.4,11.6,1.8,17.4c0.2,2.4-1.2,4.8-3.8,4.8
	c-2.7,0-3.9-2.2-4.1-4.7c-0.3-4.8-0.6-9.7-1.3-14.5c-3.5-25.3-23.7-46.2-48.8-50.7c-3.8-0.7-7.7-0.9-11.5-1.3
	c-2.4-0.3-5.6-0.4-6.1-3.4c-0.4-2.5,1.7-4.5,4.1-4.7C254.4,166.7,255,166.7,255.7,166.7C255.7,166.7,255,166.7,255.7,166.7z"/>
<path class="st2" d="M307.2,233.5c-0.1,0.4-0.1,1.4-0.3,2.4c-0.9,3.4-6.1,3.8-7.3,0.4c-0.4-1-0.4-2.2-0.4-3.3
	c0-7.2-1.6-14.4-5.2-20.6c-3.7-6.4-9.4-11.8-16.1-15.1c-4-2-8.4-3.2-12.8-3.9c-1.9-0.3-3.9-0.5-5.8-0.8c-2.4-0.3-3.6-1.8-3.5-4.1
	c0.1-2.2,1.7-3.7,4.1-3.6c7.8,0.4,15.3,2.1,22.2,5.8c14.1,7.5,22.1,19.2,24.5,34.9c0.1,0.7,0.3,1.4,0.3,2.1
	C307,229.4,307.1,231.2,307.2,233.5C307.2,233.9,307.1,231.2,307.2,233.5z"/>
<path class="st2" d="M286.1,232.7c-2.8,0.1-4.4-1.5-4.6-4.1c-0.2-1.8-0.4-3.7-0.8-5.4c-0.9-3.5-2.7-6.7-5.6-8.8
	c-1.4-1-2.9-1.7-4.6-2.2c-2.1-0.6-4.2-0.4-6.3-0.9c-2.3-0.6-3.5-2.4-3.1-4.5c0.3-1.9,2.2-3.4,4.3-3.3c13.2,0.9,22.6,7.7,23.9,23.2
	c0.1,1.1,0.2,2.2,0,3.3C288.7,231.7,287.4,232.6,286.1,232.7C283.3,232.8,287.4,232.6,286.1,232.7z"/>
</svg>
