<?xml version="1.0" encoding="UTF-8"?>
<svg id="_Слой_1" data-name="Слой 1" xmlns="http://www.w3.org/2000/svg" viewBox="0 0 524 524">
  <defs>
    <style>
      .cls-1 {
        fill: #fff;
      }

      .cls-2 {
        fill: #25d366;
      }

      .cls-3 {
        fill: #fdfdfd;
      }
    </style>
  </defs>
  <g id="_Слой_1-2" data-name="Слой 1-2">
    <path class="cls-1" d="m151.2,93.1h221.6c32.13.03,58.17,26.07,58.2,58.2v221.6c-.03,32.13-26.07,58.17-58.2,58.2h-221.6c-32.13-.03-58.17-26.07-58.2-58.2v-221.7c.04-32.11,26.09-58.12,58.2-58.1Z"/>
  </g>
  <g id="_Слой_3" data-name="Слой 3">
    <path class="cls-2" d="m262.3,130h-.61c-72.73,0-131.7,58.96-131.7,131.7h0v.61c0,72.73,58.95,131.69,131.68,131.7h.62c72.74,0,131.7-58.98,131.7-131.72h0v-.61c-.01-72.72-58.96-131.66-131.68-131.67h-.01Z"/>
    <path class="cls-3" d="m287.73,300.6c-33.83-.06-61.23-27.47-61.27-61.3,0-8.58,6.94-15.54,15.52-15.58,2.72.02,5.39.74,7.75,2.09.23.14.38.37.42.63l3.58,22.44c.04.26-.04.53-.22.73-1.95,2.14-4.46,3.69-7.25,4.47l-1.32.38.51,1.32c4.65,11.76,13.95,21.07,25.71,25.71l1.32.53.38-1.32c.78-2.81,2.36-5.34,4.54-7.29.15-.16.36-.24.58-.22h.15l22.44,3.56c.26.05.49.21.63.44.92,1.6,1.54,3.35,1.85,5.17.16.87.23,1.76.21,2.64,0,8.58-6.95,15.54-15.52,15.55v.04Z"/>
    <path class="cls-3" d="m347.64,254.57c-4.16-45.74-44.6-79.45-90.34-75.3-45.74,4.16-79.45,44.6-75.3,90.34,1.16,12.74,5.24,25.04,11.92,35.94l-17.93,39.6,57.38-6.11c9.97,4.07,20.64,6.16,31.42,6.15,2.92,0,5.82-.16,8.73-.45,2.64-.28,5.28-.69,7.79-1.2,38.56-7.94,66.33-41.74,66.66-81.1v-.45c0-2.51-.12-5.02-.34-7.42h.01Zm-112.04,67.03l-31.76,3.38,9.49-21-1.87-2.55-.44-.58c-21.46-29.72-14.77-71.22,14.95-92.68,29.72-21.46,71.22-14.77,92.68,14.95,7.08,9.8,11.35,21.35,12.34,33.4.16,1.82.24,3.67.24,5.48v1.57c-.66,30.56-22.13,56.7-51.98,63.28-4.71,1.03-9.52,1.55-14.34,1.56-8.72.01-17.36-1.71-25.41-5.07-.9-.36-1.78-.75-2.64-1.15l-1.2-.58h-.07Z"/>
  </g>
</svg>