<?xml version="1.0" encoding="utf-8"?>
<!-- Generator: Adobe Illustrator 25.0.0, SVG Export Plug-In . SVG Version: 6.00 Build 0)  -->
<svg version="1.1" id="Слой_1" xmlns="http://www.w3.org/2000/svg" xmlns:xlink="http://www.w3.org/1999/xlink" x="0px" y="0px"
	 width="512px" height="512px" viewBox="0 0 512 512" style="enable-background:new 0 0 512 512;" xml:space="preserve">
<style type="text/css">
	.st0{opacity:0.84;fill:url(#SVGID_1_);}
	.st1{fill:#FFFFFF;}
	.st2{fill:#E52521;}
</style>
<radialGradient id="SVGID_1_" cx="256" cy="257.617" r="243.8943" gradientUnits="userSpaceOnUse">
	<stop  offset="0" style="stop-color:#878787"/>
	<stop  offset="1" style="stop-color:#616160;stop-opacity:0"/>
</radialGradient>
<rect x="7.3" y="18.6" class="st0" width="497.3" height="478.1"/>
<path class="st1" d="M368.1,425.2H143.1c-31.2,0-56.4-25.3-56.4-56.4V143.7c0-31.2,25.3-56.4,56.4-56.4h225.1
	c31.2,0,56.4,25.3,56.4,56.4v225.1C424.6,400,399.3,425.2,368.1,425.2z"/>
<path class="st2" d="M375.7,224.5c0-28.9-23.4-52.3-52.3-52.3H187.8c-28.9,0-52.3,23.4-52.3,52.3V288c0,28.9,23.4,52.3,52.3,52.3
	h135.6c28.9,0,52.3-23.4,52.3-52.3V224.5z M290.1,259.4L236,289.1c-2.4,1.3-4.5-0.4-4.5-3.1v-60.9c0-2.7,2.2-4.4,4.5-3.1l54.5,31.2
	C293,254.6,292.6,258.1,290.1,259.4z"/>
</svg>
