<?xml version="1.0" encoding="utf-8"?>
<!-- Generator: Adobe Illustrator 25.4.1, SVG Export Plug-In . SVG Version: 6.00 Build 0)  -->
<svg version="1.0" id="Слой_1" xmlns="http://www.w3.org/2000/svg" xmlns:xlink="http://www.w3.org/1999/xlink" x="0px" y="0px"
	 viewBox="0 0 330.1 206.7" enable-background="new 0 0 330.1 206.7" xml:space="preserve">
<path fill="#FFFFFF" d="M288.1,206.7H42c-23.2,0-42-18.8-42-42V42C0,18.8,18.8,0,42,0h246.1c23.2,0,42,18.8,42,42v122.7
	C330.1,187.9,311.3,206.7,288.1,206.7z"/>
<path fill="#2DB4A6" d="M117.3,124.6c-6.9,8.1-16,12.2-27.3,12.2s-20.3-4-27.2-12.1c-6.8-8.1-10.2-18.1-10.2-30.1
	c0-11.8,3.5-21.8,10.4-29.9c6.9-8.1,16-12.2,27.2-12.2c11.3,0,20.3,4.1,27.2,12.2c6.8,8.1,10.2,18.1,10.2,30
	C127.7,106.5,124.2,116.5,117.3,124.6z M79.4,110.7c2.8,4.1,6.4,6.2,10.9,6.2s8.1-2.1,10.8-6.2s4.1-9.5,4.1-16s-1.4-11.8-4.2-16
	s-6.4-6.3-10.8-6.3c-4.5,0-8.1,2-10.8,6.1s-4.1,9.5-4.1,16.1C75.2,101.2,76.6,106.6,79.4,110.7z"/>
<path fill="#2DB4A6" d="M151.3,135.2V74.5l-13.7,3.1l-4.3-17.4l23.7-6.7h16.3v81.7H151.3z"/>
<path fill="#2DB4A6" d="M185.1,135.2v-16.9l30.3-23.2c3.8-2.9,6.5-5.4,8-7.6c1.6-2.2,2.4-4.5,2.4-7s-0.8-4.6-2.5-6
	c-1.7-1.5-3.8-2.2-6.5-2.2c-2.6,0-5.2,0.8-7.6,2.4c-2.4,1.6-5.3,4.3-8.5,8l-15.2-12.6c4.6-6,9.4-10.4,14.4-13.2
	c4.9-2.8,11.2-4.2,18.6-4.2c8.9,0,16.1,2.4,21.6,7.2s8.3,11.1,8.3,18.8c0,6.1-1.5,11.2-4.4,15.2c-2.9,4.1-7.7,8.4-14.4,13.1
	l-13.9,9.7h33.5V135h-64.1V135.2z"/>
</svg>
