<?xml version="1.0" encoding="utf-8"?>
<!-- Generator: Adobe Illustrator 25.0.0, SVG Export Plug-In . SVG Version: 6.00 Build 0)  -->
<svg version="1.1" id="Слой_1" xmlns="http://www.w3.org/2000/svg" xmlns:xlink="http://www.w3.org/1999/xlink" x="0px" y="0px"
	 width="255px" height="255px" viewBox="0 0 255 255" style="enable-background:new 0 0 255 255;" xml:space="preserve">
<style type="text/css">
	.st0{fill:#010202;}
</style>
<path class="st0" d="M164,122.1l25.8,24.2l-50.4,52.6c-3.4,3.5-7.9,5.5-12.6,5.5c-0.1,0-0.1,0-0.2,0c-4.7,0-9.3-1.9-12.5-5.2
	L10.3,93.9c-3.5-3.7-3.5-9.5,0.2-13.2L22.4,69c3.6-3.6,9.5-3.6,13.1,0.1l91,92.2L164,122.1z"/>
<path class="st0" d="M240.3,93.7l-36.1,37.7l-25.8-24.2l36.4-38c3.5-3.7,9.4-3.8,13.1-0.3l12.1,11.6C243.6,84,243.8,90,240.3,93.7z"
	/>
</svg>
