<?xml version="1.0" encoding="utf-8"?>
<!-- Generator: Adobe Illustrator 25.0.0, SVG Export Plug-In . SVG Version: 6.00 Build 0)  -->
<svg version="1.1" id="Слой_1" xmlns="http://www.w3.org/2000/svg" xmlns:xlink="http://www.w3.org/1999/xlink" x="0px" y="0px"
	 width="512px" height="512px" viewBox="0 0 512 512" style="enable-background:new 0 0 512 512;" xml:space="preserve">
<style type="text/css">
	.st0{opacity:0.84;fill:url(#SVGID_1_);}
	.st1{fill:#FFFFFF;}
	.st2{fill:#2F6CB4;}
	.st3{fill-rule:evenodd;clip-rule:evenodd;fill:#FFFFFF;}
</style>
<radialGradient id="SVGID_1_" cx="256" cy="257.617" r="243.8943" gradientUnits="userSpaceOnUse">
	<stop  offset="0" style="stop-color:#878787"/>
	<stop  offset="1" style="stop-color:#616160;stop-opacity:0"/>
</radialGradient>
<rect x="7.3" y="18.6" class="st0" width="497.3" height="478.1"/>
<path class="st1" d="M368.1,425.2H143.1c-31.2,0-56.4-25.3-56.4-56.4V143.7c0-31.2,25.3-56.4,56.4-56.4h225.1
	c31.2,0,56.4,25.3,56.4,56.4v225.1C424.6,400,399.3,425.2,368.1,425.2z"/>
<ellipse transform="matrix(0.7071 -0.7071 0.7071 0.7071 -106.329 255.79)" class="st2" cx="255.6" cy="256.2" rx="140.5" ry="140.5"/>
<path class="st3" d="M232.3,257.8v86c0,1.2,1,2.2,2.2,2.2h32c1.2,0,2.2-1,2.2-2.2v-87.5h23.2c1.2,0,2.1-0.9,2.2-2.1l2.2-26.3
	c0.1-1.3-0.9-2.4-2.2-2.4h-25.4v-18.7c0-4.4,3.6-7.9,7.9-7.9h17.9c1.2,0,2.2-1,2.2-2.2v-26.3c0-1.2-1-2.2-2.2-2.2h-30.2
	c-17.7,0-32.1,14.4-32.1,32.1v25.4h-16c-1.2,0-2.2,1-2.2,2.2v26.3c0,1.2,1,2.2,2.2,2.2h16V257.8z"/>
</svg>
