<?xml version="1.0" encoding="utf-8"?>
<!-- Generator: Adobe Illustrator 25.0.0, SVG Export Plug-In . SVG Version: 6.00 Build 0)  -->
<svg version="1.1" id="Слой_1" xmlns="http://www.w3.org/2000/svg" xmlns:xlink="http://www.w3.org/1999/xlink" x="0px" y="0px"
	 width="512px" height="512px" viewBox="0 0 512 512" style="enable-background:new 0 0 512 512;" xml:space="preserve">
<style type="text/css">
	.st0{opacity:0.84;fill:url(#SVGID_1_);}
	.st1{fill:url(#SVGID_2_);}
	.st2{fill:#FFFFFF;}
</style>
<radialGradient id="SVGID_1_" cx="256" cy="257.617" r="243.8943" gradientUnits="userSpaceOnUse">
	<stop  offset="0" style="stop-color:#878787"/>
	<stop  offset="1" style="stop-color:#616160;stop-opacity:0"/>
</radialGradient>
<rect x="7.3" y="18.6" class="st0" width="497.3" height="478.1"/>
<linearGradient id="SVGID_2_" gradientUnits="userSpaceOnUse" x1="103.1454" y1="408.7012" x2="408.0571" y2="103.7896">
	<stop  offset="1.104800e-03" style="stop-color:#FBE189"/>
	<stop  offset="0.1602" style="stop-color:#FBBB46"/>
	<stop  offset="0.3899" style="stop-color:#EA5275"/>
	<stop  offset="0.7249" style="stop-color:#D23B8E"/>
	<stop  offset="1" style="stop-color:#6E4796"/>
</linearGradient>
<path class="st1" d="M368.1,425.2H143.1c-31.2,0-56.4-25.3-56.4-56.4V143.7c0-31.2,25.3-56.4,56.4-56.4h225.1
	c31.2,0,56.4,25.3,56.4,56.4v225.1C424.6,400,399.3,425.2,368.1,425.2z"/>
<circle class="st2" cx="323.4" cy="189" r="15"/>
<path class="st2" d="M256.7,193.2c-34.8,0-63,28.3-63,63s28.3,63,63,63s63-28.3,63-63S291.4,193.2,256.7,193.2z M256.7,296.6
	c-22.3,0-40.4-18.1-40.4-40.4c0-22.3,18.1-40.4,40.4-40.4c22.3,0,40.4,18.1,40.4,40.4C297,278.5,278.9,296.6,256.7,296.6z"/>
<path class="st2" d="M306.7,384.2H204.5c-42.4,0-76.9-34.5-76.9-76.9V205.1c0-42.4,34.5-76.9,76.9-76.9h102.2
	c42.4,0,76.9,34.5,76.9,76.9v102.2C383.6,349.7,349.1,384.2,306.7,384.2z M204.5,152.3c-29.1,0-52.8,23.7-52.8,52.8v102.2
	c0,29.1,23.7,52.8,52.8,52.8h102.2c29.1,0,52.8-23.7,52.8-52.8V205.1c0-29.1-23.7-52.8-52.8-52.8H204.5z"/>
</svg>
