<?xml version="1.0" encoding="UTF-8"?>
<svg id="_Слой_1" data-name="Слой 1" xmlns="http://www.w3.org/2000/svg" xmlns:xlink="http://www.w3.org/1999/xlink" viewBox="0 0 524 524">
  <defs>
    <style>
      .cls-1 {
        fill: #fff;
      }

      .cls-2 {
        fill: url(#_Безымянный_градиент);
      }

      .cls-3 {
        fill: url(#_Безымянный_градиент_2);
      }
    </style>
    <linearGradient id="_Безымянный_градиент" data-name="Безымянный градиент" x1="168.56" y1="1465.45" x2="355.44" y2="1278.62" gradientTransform="translate(0 -1110.04)" gradientUnits="userSpaceOnUse">
      <stop offset="0" stop-color="#0498fa"/>
      <stop offset=".34" stop-color="#5c5efe"/>
      <stop offset=".73" stop-color="#f44e90"/>
      <stop offset="1" stop-color="#fa8679"/>
    </linearGradient>
    <linearGradient id="_Безымянный_градиент_2" data-name="Безымянный градиент 2" x1="229.27" y1="1405.05" x2="295.08" y2="1339.26" gradientTransform="translate(0 -1110.04)" gradientUnits="userSpaceOnUse">
      <stop offset="0" stop-color="#0498fa"/>
      <stop offset=".34" stop-color="#5c5efe"/>
      <stop offset=".73" stop-color="#f44e90"/>
      <stop offset="1" stop-color="#fa8679"/>
    </linearGradient>
  </defs>
  <g id="_Слой_1-2" data-name="Слой 1-2">
    <path class="cls-1" d="m151.13,93.08h221.6c32.13.03,58.17,26.07,58.2,58.2v221.6c-.03,32.13-26.07,58.17-58.2,58.2h-221.6c-32.13-.03-58.17-26.07-58.2-58.2v-221.7c.04-32.11,26.09-58.12,58.2-58.1Z"/>
  </g>
  <g id="_Слой_3" data-name="Слой 3">
    <path class="cls-2" d="m262.3,130h-.61c-72.73,0-131.7,58.96-131.7,131.7h0v.61c0,72.73,58.95,131.69,131.68,131.7h.62c72.74,0,131.7-58.98,131.7-131.72h0v-.61c-.01-72.72-58.96-131.66-131.68-131.67h-.01Z"/>
    <path class="cls-1" d="m340.59,262v.46c-.28,37.19-26.55,69.12-62.99,76.56-2.42.46-4.87.84-7.37,1.12-2.73.28-5.49.42-8.24.44-10.57.01-21.03-2.12-30.76-6.27l-36.47,3.87c-4.44.48-8.43-2.74-8.91-7.18,0,0,0,0,0,0h0c-.16-1.44.07-2.9.67-4.21l9.79-21.73c-23.89-36.23-13.88-84.97,22.35-108.86,36.23-23.89,84.97-13.88,108.86,22.35,7.17,10.88,11.53,23.37,12.67,36.35.27,2.36.4,4.73.38,7.1Z"/>
    <path class="cls-3" d="m299.8,239.02c1.58-1.51,4.09-1.46,5.6.12,1.36,1.42,1.47,3.61.27,5.16l-16.5,25.46-8.73,13.48c-1.78,2.72-5.42,3.49-8.14,1.73l-.34-.24-14.52-10.98-8.92-6.77c-.71-.57-1.72-.57-2.43,0l-21.91,17.87c-1.58,1.51-4.09,1.46-5.6-.12-1.36-1.42-1.47-3.61-.27-5.16l15.5-23.76,8.74-13.48c1.8-2.71,5.44-3.45,8.16-1.66l.26.2,14.04,10.65,8.92,6.76c.72.55,1.72.55,2.44,0l23.43-19.26Z"/>
  </g>
</svg>