<?xml version="1.0" encoding="UTF-8"?>
<svg id="_Слой_1" data-name="Слой 1" xmlns="http://www.w3.org/2000/svg" xmlns:xlink="http://www.w3.org/1999/xlink" viewBox="0 0 524 524">
  <defs>
    <style>
      .cls-1 {
        fill: url(#_Безымянный_градиент);
      }

      .cls-2 {
        fill: #fefefe;
      }
    </style>
    <linearGradient id="_Безымянный_градиент" data-name="Безымянный градиент" x1="262" y1="1203.04" x2="262" y2="1541.04" gradientTransform="translate(0 -1110.04)" gradientUnits="userSpaceOnUse">
      <stop offset="0" stop-color="#5cf777"/>
      <stop offset="1" stop-color="#0ebc29"/>
    </linearGradient>
  </defs>
  <g id="_Слой_3" data-name="Слой 3">
    <rect class="cls-1" x="93" y="93" width="338" height="338" rx="75.26" ry="75.26"/>
    <path class="cls-2" d="m157.34,211.33c-13.96-37.52,10.14-54.08,27.46-58.98,2.96-.75,6.06.46,7.74,3.01l31.62,45.36c2,2.99,1.88,6.92-.29,9.79-7.23,9.89-9.85,18.27-10.78,24.81-.6,5.45.98,10.92,4.39,15.21,24.78,33.48,51.66,58.83,64.91,59.35,9.67.44,21.48-7.05,27.92-11.83,2.86-2.16,6.76-2.31,9.79-.39l46.24,30.84c2.6,1.68,3.89,4.8,3.23,7.82-8.45,38.87-44.94,34.71-62.82,27.41-83.82-39.02-130.37-101.06-149.41-152.4Z"/>
  </g>
</svg>