<?xml version="1.0" encoding="utf-8"?>
<!-- Generator: Adobe Illustrator 25.0.0, SVG Export Plug-In . SVG Version: 6.00 Build 0)  -->
<svg version="1.1" id="Слой_1" xmlns="http://www.w3.org/2000/svg" xmlns:xlink="http://www.w3.org/1999/xlink" x="0px" y="0px"
	 width="144px" height="144px" viewBox="0 0 144 144" style="enable-background:new 0 0 144 144;" xml:space="preserve">
<style type="text/css">
	.st0{fill:#36DF36;}
	.st1{fill:#FFFFFF;}
</style>
<path class="st0" d="M39,126h66c11.6,0,21-9.4,21-21V39c0-11.6-9.4-21-21-21H39c-11.6,0-21,9.4-21,21v66C18,116.6,27.4,126,39,126z"
	/>
<path class="st1" d="M106.4,93.1L92.5,84c-1.7-1-3.8-1-5.5-0.1c0,0,0,0-5.9,3.5c-0.8,0.5-1.6,0.5-2.2,0.4c-0.8-0.1-1.3-0.6-1.4-0.6
	c-3.3-2.4-7.1-5.6-11.1-9.6c-4.1-4.1-7.2-7.9-9.6-11.1c0,0-0.5-0.6-0.6-1.4c-0.1-0.6,0-1.4,0.4-2.2c3.5-5.9,3.5-5.9,3.5-5.9
	c1-1.7,1-3.8-0.1-5.5l-9.2-13.8c-1.1-1.7-3.5-2.2-5.1-1c0,0-4.3,3-5.8,4c-2.3,1.6-3,4.1-3,7.5c0,4.8,4.1,19.9,21.6,37.4l0,0l0,0l0,0
	l0,0c17.5,17.5,32.5,21.6,37.3,21.6c3.4,0,5.9-0.7,7.5-3c1-1.4,4-5.8,4-5.8C108.5,96.6,108.1,94.3,106.4,93.1z"/>
</svg>
