<svg id="Слой_1" data-name="Слой 1" xmlns="http://www.w3.org/2000/svg" xmlns:xlink="http://www.w3.org/1999/xlink" viewBox="0 0 524 524"><defs><style>.cls-1{fill:#fff;}.cls-2{fill:url(#Безымянный_градиент);}.cls-3{fill:#fefefe;}</style><linearGradient id="Безымянный_градиент" x1="261.93" y1="1216.94" x2="261.93" y2="1526.99" gradientTransform="translate(0 -1110.04)" gradientUnits="userSpaceOnUse"><stop offset="0" stop-color="#5cf777"/><stop offset="1" stop-color="#0ebc29"/></linearGradient></defs><path class="cls-1" d="M90.16.08H433.7a90.32,90.32,0,0,1,90.23,90.23V433.85a90.32,90.32,0,0,1-90.23,90.23H90.16A90.32,90.32,0,0,1-.07,433.85V90.15A90.18,90.18,0,0,1,90.16.08Z"/><rect class="cls-2" x="106.9" y="106.9" width="310.06" height="310.06" rx="69.03"/><path class="cls-3" d="M165.92,215.45c-12.81-34.42,9.3-49.61,25.19-54.11a6.57,6.57,0,0,1,7.1,2.76l29,41.61a7.77,7.77,0,0,1-.26,9c-6.64,9.07-9,16.76-9.9,22.76a19.12,19.12,0,0,0,4,14c22.72,30.71,47.39,54,59.54,54.44,8.87.41,19.71-6.46,25.61-10.85a7.88,7.88,0,0,1,9-.35l42.42,28.29a6.83,6.83,0,0,1,3,7.18C352.85,365.76,319.38,362,303,355.25,226.09,319.46,183.39,262.55,165.92,215.45Z"/></svg>