<svg id="Слой_1" data-name="Слой 1" xmlns="http://www.w3.org/2000/svg" viewBox="0 0 524 524"><defs><style>.cls-1{fill:#fff;}.cls-2{fill:#25d366;}.cls-3{fill:#fdfdfd;}</style></defs><path class="cls-1" d="M90.23,0H433.77A90.32,90.32,0,0,1,524,90.23V433.77A90.32,90.32,0,0,1,433.77,524H90.23A90.32,90.32,0,0,1,0,433.77V90.07A90.18,90.18,0,0,1,90.23,0Z"/><g id="Слой_3" data-name="Слой 3"><path class="cls-2" d="M262.25,106.82h-.72A154.67,154.67,0,0,0,106.86,261.49h0v.71A154.66,154.66,0,0,0,261.52,416.87h.73a154.68,154.68,0,0,0,154.67-154.7h0v-.71A154.66,154.66,0,0,0,262.26,106.82Z"/><path class="cls-3" d="M292.11,307.18a72.1,72.1,0,0,1-72-72,18.3,18.3,0,0,1,18.23-18.29,18.49,18.49,0,0,1,9.1,2.45,1,1,0,0,1,.5.74l4.2,26.36a1,1,0,0,1-.26.85,18.19,18.19,0,0,1-8.51,5.25l-1.55.45.6,1.55a53.67,53.67,0,0,0,30.2,30.2l1.55.62.45-1.55a17.88,17.88,0,0,1,5.33-8.55.89.89,0,0,1,.69-.27h.17l26.35,4.19a1.13,1.13,0,0,1,.75.51,18.52,18.52,0,0,1,2.17,6.08,16.07,16.07,0,0,1,.24,3.1,18.26,18.26,0,0,1-18.23,18.26Z"/><path class="cls-3" d="M362.47,253.12A97.67,97.67,0,1,0,181.94,313l-21.05,46.51,67.39-7.17a97.46,97.46,0,0,0,36.9,7.22c3.42,0,6.83-.19,10.25-.53a91.72,91.72,0,0,0,9.14-1.41,98.07,98.07,0,0,0,78.29-95.25v-.53c0-2.94-.14-5.89-.4-8.71ZM230.89,331.84l-37.3,4,11.14-24.67-2.2-3-.51-.68a78,78,0,1,1,140.91-52.06c.18,2.14.27,4.31.27,6.43v1.85A77.81,77.81,0,0,1,282.15,338a79.37,79.37,0,0,1-16.83,1.83,77.42,77.42,0,0,1-29.85-5.95c-1.05-.42-2.09-.89-3.1-1.35l-1.41-.68Z"/></g></svg>