<svg id="Слой_1" data-name="Слой 1" xmlns="http://www.w3.org/2000/svg" xmlns:xlink="http://www.w3.org/1999/xlink" viewBox="0 0 524 524"><defs><style>.cls-1{fill:url(#Безымянный_градиент);}.cls-2{fill:#fff;}.cls-3{fill:url(#Безымянный_градиент_2);}</style><linearGradient id="Безымянный_градиент" x1="76.53" y1="-477.41" x2="447.47" y2="-106.59" gradientTransform="matrix(1, 0, 0, -1, 0, -30)" gradientUnits="userSpaceOnUse"><stop offset="0" stop-color="#0498fa"/><stop offset="0.34" stop-color="#5c5efe"/><stop offset="0.73" stop-color="#f44e90"/><stop offset="1" stop-color="#fa8679"/></linearGradient><linearGradient id="Безымянный_градиент_2" x1="197.07" y1="-357.58" x2="327.67" y2="-227.01" xlink:href="#Безымянный_градиент"/></defs><g id="Слой_3" data-name="Слой 3"><path class="cls-1" d="M262.6,0h-1.2C117,0,0,117,0,261.38v1.21C0,406.94,117,524,261.37,524h1.23C407,524,524,407,524,262.62v-1.21C524,117.06,407,0,262.63,0Z"/><path class="cls-2" d="M418,261.94v.91a156.26,156.26,0,0,1-125,152q-7.19,1.41-14.62,2.25a162.3,162.3,0,0,1-16.35.84A154.75,154.75,0,0,1,201,405.45l-72.38,7.73a16.06,16.06,0,0,1-16.36-22.6l19.44-43.09a156,156,0,1,1,285.72-99.56C417.81,252.63,418,257.33,418,261.94Z"/><path class="cls-3" d="M337,216.43a7.86,7.86,0,0,1,11.66,10.48L316,277.44l-17.27,26.74a11.68,11.68,0,0,1-16.15,3.45h0a8.19,8.19,0,0,1-.68-.47L253,285.35l-17.71-13.44a3.9,3.9,0,0,0-4.82,0L187,307.38a7.86,7.86,0,0,1-11.66-10.48l30.76-47.16L223.43,223a11.68,11.68,0,0,1,16.18-3.31h0l.52.37L268,241.2l17.71,13.4a3.92,3.92,0,0,0,4.85,0Z"/></g></svg>