<svg id="Слой_1" data-name="Слой 1" xmlns="http://www.w3.org/2000/svg" viewBox="0 0 524 524"><defs><style>.cls-1{fill:#24a1de;}.cls-2{fill:#fefffc;}</style></defs><g id="Слой_3" data-name="Слой 3"><path class="cls-1" d="M262.6,0h-1.2C117,0,0,117,0,261.38v1.21C0,406.94,117,524,261.37,524h1.23C407,524,524,407,524,262.62v-1.21C524,117.06,407,0,262.63,0Z"/><path class="cls-2" d="M99.25,253.08c.73-.4,1.46-.73,2.16-1.05,12.46-5.78,25.08-11.18,37.66-16.58a9.06,9.06,0,0,0,2.46-1l2.94-1.24,5.57-2.41L161.29,226l22.39-9.61,44.86-19.18L273.39,178l44.86-19.2,44.83-19.17a51.34,51.34,0,0,1,10.48-4.2c3-.54,5.92-1.57,8.94-2.09a29.68,29.68,0,0,1,17.47.84,16.07,16.07,0,0,1,5.08,3.42c6.95,6.87,6,18.13,4.51,27.8q-15.33,101-30.71,201.92c-1.38,9.25-3.3,19.38-10.48,25.23-6.15,4.93-14.93,5.47-22.55,3.37a75.7,75.7,0,0,1-21-10.86l-82.14-54.33c-6.5-4.3-13.73-9.91-13.63-17.7,0-4.7,2.86-8.89,5.71-12.63,23.77-31,58-52.4,83.53-81.83,3.59-4.19,6.42-11.7,1.5-14.09-2.94-1.44-6.29.5-9,2.35L209.74,277.06c-11,7.64-22.57,15.5-35.77,17.43-11.88,1.67-23.79-1.62-35.27-5q-14.41-4.25-28.82-8.72a36.56,36.56,0,0,1-14.25-6.86c-3.93-3.59-6.18-9.61-3.83-14.38a15.78,15.78,0,0,1,7.41-6.43Z"/></g></svg>