<svg id="Слой_1" data-name="Слой 1" xmlns="http://www.w3.org/2000/svg" viewBox="0 0 524 524"><defs><style>.cls-1{fill:#25d366;}.cls-2{fill:#fdfdfd;}</style></defs><g id="Слой_3" data-name="Слой 3"><path class="cls-1" d="M262.6,0h-1.2C117,0,0,117,0,261.38v1.21C0,406.94,117,524,261.37,524h1.23C407,524,524,407,524,262.62v-1.21C524,117.06,407,0,262.63,0Z"/><path class="cls-2" d="M313.07,338.63A121.79,121.79,0,0,1,191.42,217a30.78,30.78,0,0,1,46.21-26.69,1.72,1.72,0,0,1,.84,1.22l7.11,44.53a1.75,1.75,0,0,1-.45,1.45,30.59,30.59,0,0,1-14.47,9l-2.62.76,1.05,2.62a90.72,90.72,0,0,0,51,51l2.62,1.05.75-2.62a30.46,30.46,0,0,1,9-14.46,1.58,1.58,0,0,1,1.15-.44H294l44.67,7.09a1.94,1.94,0,0,1,1.26.84,31.22,31.22,0,0,1,3.67,10.29,26.6,26.6,0,0,1,.41,5.12,30.82,30.82,0,0,1-30.81,30.85h0Z"/><path class="cls-2" d="M432,247.33A165.06,165.06,0,1,0,126.88,348.41L91.3,427l113.9-12.18A164.16,164.16,0,0,0,267.55,427a169.67,169.67,0,0,0,17.32-.89c5.24-.55,10.48-1.36,15.46-2.38A165.74,165.74,0,0,0,432.64,262.83v-.89c0-5-.24-9.94-.69-14.73ZM209.6,380.3l-63,6.71,18.87-41.67-3.78-5.06-.86-1.16a131.76,131.76,0,1,1,238.13-88c.32,3.61.47,7.28.47,10.87v3.15A131.72,131.72,0,0,1,217.2,383.76c-1.78-.71-3.53-1.49-5.24-2.28l-2.38-1.15Z"/></g></svg>