<?xml version="1.0" encoding="UTF-8"?>
<svg id="_Слой_1" data-name="Слой 1" xmlns="http://www.w3.org/2000/svg" viewBox="0 0 524 99">
  <defs>
    <style>
      .cls-1 {
        fill: #fdcc17;
      }
    </style>
  </defs>
  <polygon class="cls-1" points="0 38.03 35.79 31.61 50.47 .4 66.07 31.61 101.86 37.11 76.17 61.89 83.51 98.6 50.93 80.44 20.99 98.6 24.32 61.43 0 38.03"/>
  <polygon class="cls-1" points="105.53 38.03 141.32 31.61 156.01 .4 171.61 31.61 207.4 37.11 181.7 61.89 189.04 98.6 156.47 80.44 126.52 98.6 129.85 61.43 105.53 38.03"/>
  <polygon class="cls-1" points="211.07 38.03 246.86 31.61 261.54 .4 277.14 31.61 312.93 37.11 287.24 61.89 294.58 98.6 262 80.44 232.06 98.6 235.39 61.43 211.07 38.03"/>
  <polygon class="cls-1" points="316.6 38.03 352.39 31.61 367.08 .4 382.68 31.61 418.47 37.11 392.77 61.89 400.11 98.6 367.53 80.44 337.59 98.6 340.92 61.43 316.6 38.03"/>
  <polygon class="cls-1" points="422.14 38.03 457.93 31.61 472.61 .4 488.21 31.61 524 37.11 498.3 61.89 505.65 98.6 473.07 80.44 443.13 98.6 446.46 61.43 422.14 38.03"/>
</svg>