<?xml version="1.0" encoding="UTF-8"?>
<svg id="_Слой_1" data-name="Слой 1" xmlns="http://www.w3.org/2000/svg" viewBox="0 0 524 99">
  <defs>
    <style>
      .cls-1 {
        fill: #fdcc17;
      }
    </style>
  </defs>
  <polygon class="cls-1" points="52.77 38.03 88.56 31.61 103.24 .4 118.84 31.61 154.63 37.11 128.94 61.89 136.28 98.6 103.7 80.44 73.76 98.6 77.09 61.43 52.77 38.03"/>
  <polygon class="cls-1" points="158.3 38.03 194.09 31.61 208.77 .4 224.37 31.61 260.16 37.11 234.47 61.89 241.81 98.6 209.23 80.44 179.29 98.6 182.62 61.43 158.3 38.03"/>
  <polygon class="cls-1" points="263.84 38.03 299.63 31.61 314.31 .4 329.91 31.61 365.7 37.11 340 61.89 347.35 98.6 314.77 80.44 284.83 98.6 288.15 61.43 263.84 38.03"/>
  <polygon class="cls-1" points="369.37 38.03 405.16 31.61 419.84 .4 435.44 31.61 471.23 37.11 445.54 61.89 452.88 98.6 420.3 80.44 390.36 98.6 393.69 61.43 369.37 38.03"/>
</svg>